<?xml version="1.0" encoding="utf-8"?>
<!-- Generator: Adobe Illustrator 21.0.2, SVG Export Plug-In . SVG Version: 6.00 Build 0)  -->
<svg version="1.1" id="Layer_1" xmlns="http://www.w3.org/2000/svg" xmlns:xlink="http://www.w3.org/1999/xlink" x="0px" y="0px"
	 viewBox="0 0 409 112.7" style="enable-background:new 0 0 409 112.7;" xml:space="preserve">
<style type="text/css">
	.st0{fill:#333333;}
</style>
<g>
	<path class="st0" d="M56.2,29.4h-2.8c-0.5-2.5-2.1-5.3-4.6-8.5c-2.9-3.6-6.2-6.1-9.8-7.6l-5-1.3l-4.8-0.6c-2.2,0-4,0.3-5.4,1
		c-1.5,0.5-3,1.5-4.3,3.1c-2.3,2.8-3.5,5.9-3.5,9.4c0,2.4,0.6,4.7,1.8,6.8h12.5v9.7H19.9v54.9L9.2,85.6V41.4H0.7v-9.7H9
		c-0.5-0.9-0.9-1.6-1.3-2.3c-0.3-0.7-0.8-1.8-1.3-3.5l-0.6-4.5V19c0-3.2,1.1-5.9,3.4-8.3c1.7-1.8,4.3-3.6,7.9-5.4
		c1.5-0.8,3.4-1.2,5.8-1.2c1.8,0,3.4,0.1,4.6,0.3c1.3,0.2,2.8,0.6,4.6,1.2c3.2,0.9,6.2,2.2,9.2,4c3.9,2.3,7,5.1,9.4,8.3
		C52.9,21,54.8,24.9,56.2,29.4z"/>
	<path class="st0" d="M74.9,41h-9.9v17.8H44.1c-1,0-1.8,0.3-2.7,1c-0.8,0.6-1.4,1.5-1.6,2.6c0,0.8,0.3,1.6,1,2.6
		c0.8,0.8,1.7,1,2.7,0.8l4.7-1.7l4-0.6h2.2c3.8,0.8,7.1,2.8,9.8,5.9c2.7,3.2,4.1,6.8,4.1,10.9c0,2.5-0.7,4.9-2.2,7.3
		c-1.1,2-2.7,3.7-4.6,5.2l-6.6-6.8l4.4-2.6c2.9-2.1,4.4-4.2,4.4-6.2l-0.4-1.7c-0.3-1-1.3-2-2.7-3c-1.6-0.6-3-0.9-4.3-0.9
		c-1.4,0-2.6,0.2-3.6,0.5c-3.5,1.3-6.2,2.8-8.4,4.4c-2.1,1.6-3.6,4.1-4.5,7.5v1.4c0,2.7,2,5.5,5.9,8.4c1.5,1,4.2,2.4,8,4l18,8.6
		l0,4.7l-19.4-8.6c-4.6-1.7-9.3-4.7-14.1-9c-4-3.6-6.1-7.1-6.1-10.6c0-3,0.5-5.6,1.4-7.9c0.9-2.2,2.6-4.4,5-6.6l-3.4-3.9
		c-2-2.9-3-5.4-3-7.4c0-0.9,0.1-1.5,0.3-1.8c0.5-1.7,1.5-3.2,3-4.4c1.5-1.2,3.2-1.8,5.1-1.8h15.6V41H30.2v-9.3h44.6V41z"/>
	<path class="st0" d="M134.6,41.4h-9.3v54.9l-10.8-10.8V71.3H95.3v9.5c0,1.3-0.4,2.1-1.3,2.5c-0.5,0.3-1.2,0-1.9-0.8L90.7,81
		L77.5,67.1c-1.3-1.5-1.8-3.1-1.5-4.8c0.3-1.5,1.2-2.2,2.7-2.2h6.3V41.4H74.9v-9.7h59.7V41.4z M114.5,60.1V41.4H95.3v18.7H114.5z"/>
	<path class="st0" d="M163.2,41.4h-9.9v54.9l-10.7-12.1V41.4h-8v-9.7h28.6V41.4z"/>
	<path class="st0" d="M228.1,41.4h-8.9v54.9l-11.9-11.7V61.8l-3,1.2l-3.5,1.9c-1,0.6-2.6,2-4.8,4.3l-2.5,3l-8-8.4l3.5-3.6
		c-1.6-1.4-3.4-2.1-5.4-2.1c-1,0-2.1,0.2-3.2,0.6c-1.4,0.3-2.5,1.2-3.5,3c-0.9,1.7-1.4,3.6-1.4,5.7c0,2.3,0.9,4.4,2.7,6.2l11.3,11.1
		l-3.7,4.2L175,77.7l-6.7-6.8c-2.2-2.7-3.2-5.3-3.2-7.9v-2.1c0.5-2.9,1.7-5.2,3.6-7.1c1.9-1.9,4.6-3.3,8.1-4.3h1.4
		c1.9,0,4.3,0.4,7.1,1.3c4.2,1.2,7,2.9,8.6,5.2l2.1-1.7c0.8-0.5,2-1.2,3.8-1.9l3.1-0.8h2.6h1.9V41.4h-44.1v-9.7h64.9V41.4z"/>
	<path class="st0" d="M300.6,41.4h-9.5v54.9l-9.4-9.2c-2.5,1.8-5.5,3.3-8.9,4.3l-4.1,0.5c-2.2,0-4.9-0.6-8-1.7l-5.2-2.1
		c-4-1.5-8.2-4.5-12.7-8.9c-4.5-4.4-7.8-8.6-9.7-12.4c-1.5-2.8-2.3-5.7-2.3-8.6c0-1.8,0.5-3.2,1.5-4.2c1-0.8,2.2-1.2,3.5-1.2
		c1.6,0,3.2,0.5,4.6,1.4V41.4h-12.3v-9.7h72.5V41.4z M280.9,77.9v-5.6c-0.3,0.4-2.1,1.4-5.5,3c-3.4,1.6-6.3,2.4-8.8,2.4
		c-3.9,0-7.3-1.5-10.2-4.4c-2.8-3-4.1-6.6-4.1-10.8c0-3.4,1-6.4,3.1-8.9c2.1-2.6,4.9-4.3,8.5-5.3h2.6c2.5,0,5.5,0.8,9,2.3
		c2.8,1.3,4.6,2.5,5.4,3.6V41.4h-32.4l0.4,8c0,4.5-0.6,8.6-1.8,12.2l-1.5,3.6c-0.5,1.1-0.9,2.1-1.1,3c-0.2,0.9-0.3,1.9-0.3,2.9
		c0.9,3.8,3.7,6.9,8.4,9.4c4.8,2.5,9.4,3.7,14,3.7c2.7,0,5.2-0.5,7.5-1.5C276.4,81.7,278.6,80.1,280.9,77.9z M279.2,59.5
		c-0.1-0.8-0.6-1.3-1.7-1.7l-2.3-0.8h-2.5c-2.8,0-5.1,0.5-7,1.4c-2.2,0.8-3.7,1.6-4.6,2.4c-1.5,1.3-2.2,2.8-1.9,4.6
		c0.2,0.8,0.6,1.4,1.3,1.9c0.2,0.2,1.1,0.4,2.7,0.6h2.5l4.9-1.4c2.7-0.8,4.8-1.7,6.3-2.7C278.4,62.9,279.2,61.4,279.2,59.5z"/>
	<path class="st0" d="M353,41.4h-9.3v54.9l-9.7-9.7v-9.2c-1.6,2.4-4,4.4-7,5.9c-2.9,1.2-5.9,1.8-9,1.8c-3.6,0-7.3-2.1-11.1-6.5
		c-3.8-4.3-5.7-8.8-5.7-13.4c0-4.1,2.2-8,6.6-11.5c4-2.9,8-4.4,12-4.4c2.7,0,5.5,1,8.6,3c2.6,1.5,4.4,3.2,5.5,4.9V41.4h-33.4v-9.7
		H353V41.4z M321.9,73.7l-8.8-9.8c-0.6,0-1.6,0.6-3,1.7c-1.4,1.2-2.2,2.5-2.4,3.9c0,1.5,0.6,3,1.9,4.2c1.3,1,3,1.8,5,2.3
		c1.5,0.2,3.4-0.3,5.7-1.4L321.9,73.7z M334,64.4c-0.3-0.3-0.5-0.7-0.8-1.2c-0.4-0.5-1-1.1-1.8-1.6c-0.8-0.6-1.8-1.1-3.3-1.6
		l-3.1-0.5c-1.5,0-3.1,0.2-4.8,0.7c-1.7,0.5-2.8,1-3.4,1.5l8.8,9.9l2.5-1.3c0.8-0.4,1.7-1.2,2.8-2.2S333.1,65.8,334,64.4z"/>
	<path class="st0" d="M408.5,41.4H388c1.6,4.1,2.5,7.8,2.5,11.1l-0.4,5c-0.3,1.8-0.7,3.4-1.2,4.9c-0.6,1.5-1.5,3.3-2.9,5.5
		c-1.8,3.1-4.1,5.9-6.7,8.3l21.8,19l-4,5.9l-22.3-22c-3.9-3.8-6.6-6.6-8.3-8.5c-2.6-3.3-3.9-6.4-3.9-9.3c0-2.8,0.8-5,2.3-6.5
		c1-0.8,2.9-1.2,5.5-1.2c1.1,0,2.6,0.3,4.4,0.9l3.7,0.9c1.1,0,2-0.6,2.5-1.9c0.6-1.2,0.8-2.7,0.8-4.5v-1.5c0-2.3-0.6-4.4-1.9-6.2
		h-27v-9.7h55.5V41.4z"/>
</g>
</svg>
